<svg width="695" height="688" viewBox="0 0 695 688" fill="none" xmlns="http://www.w3.org/2000/svg">
<rect x="7" width="688" height="688" rx="160" fill="#333333"/>
<path d="M453.551 594.076C451.098 601.629 455.224 609.816 462.984 611.503C484.716 616.227 507.316 615.858 528.994 610.34C555.332 603.636 579.231 589.604 597.92 569.872C616.609 550.14 629.323 525.516 634.589 498.853C639.854 472.19 637.455 444.581 627.67 419.225C617.885 393.87 601.115 371.807 579.303 355.594C557.491 339.381 531.53 329.682 504.431 327.62C477.331 325.559 450.202 331.22 426.189 343.947C406.424 354.422 389.435 369.332 376.511 387.43C371.895 393.892 374.339 402.729 381.23 406.676C388.121 410.623 396.838 408.169 401.614 401.824C411.725 388.389 424.696 377.285 439.656 369.356C458.867 359.175 480.57 354.646 502.249 356.295C523.929 357.944 544.697 365.704 562.147 378.674C579.597 391.645 593.013 409.295 600.841 429.579C608.669 449.863 610.588 471.951 606.376 493.281C602.163 514.611 591.992 534.311 577.041 550.097C562.09 565.882 542.971 577.108 521.9 582.471C505.493 586.648 488.425 587.136 471.91 583.977C464.11 582.485 456.004 586.523 453.551 594.076Z" fill="url(#paint0_linear)"/>
<path d="M379.035 404.336C384.689 410.374 394.215 410.723 399.798 404.619C422.729 379.552 438.722 348.817 446.043 315.462C454.438 277.217 451.037 237.325 436.291 201.053C421.545 164.781 396.147 133.832 363.448 112.293C330.749 90.7546 292.288 79.6375 253.14 80.4098C213.993 81.182 175.999 93.8073 144.175 116.619C112.352 139.431 88.1933 171.357 74.8893 208.182C61.5853 245.008 59.7611 285.002 69.6574 322.886C78.2885 355.927 95.4808 386.007 119.382 410.151C125.202 416.029 134.707 415.305 140.118 409.049C145.529 402.793 144.787 393.379 139.051 387.419C119.69 367.299 105.738 342.492 98.6391 315.316C90.2741 283.294 91.816 249.488 103.061 218.36C114.307 187.232 134.727 160.247 161.627 140.965C188.526 121.683 220.641 111.011 253.731 110.358C286.821 109.705 319.331 119.102 346.971 137.308C374.61 155.515 396.078 181.674 408.543 212.334C421.007 242.994 423.881 276.713 416.785 309.04C410.763 336.475 397.801 361.813 379.248 382.681C373.752 388.862 373.382 398.298 379.035 404.336Z" fill="url(#paint1_linear)"/>
<defs>
<linearGradient id="paint0_linear" x1="578.637" y1="355.102" x2="408.411" y2="586.887" gradientUnits="userSpaceOnUse">
<stop stop-color="#FFDB6F"/>
<stop offset="1" stop-color="#FFDB6F" stop-opacity="0.5"/>
</linearGradient>
<linearGradient id="paint1_linear" x1="175.712" y1="98.2467" x2="338.205" y2="449.67" gradientUnits="userSpaceOnUse">
<stop stop-color="#FFDB6F"/>
<stop offset="1" stop-color="#FFDB6F" stop-opacity="0.5"/>
</linearGradient>
</defs>
</svg>
